<?xml version="1.0" encoding="utf-8"?>
<!-- Generator: Adobe Illustrator 23.0.0, SVG Export Plug-In . SVG Version: 6.00 Build 0)  -->
<svg version="1.1" id="Layer_1" xmlns="http://www.w3.org/2000/svg" xmlns:xlink="http://www.w3.org/1999/xlink" x="0px" y="0px"
	 viewBox="0 0 1003.75 716.79" style="enable-background:new 0 0 1003.75 716.79;" xml:space="preserve">
<g>
	<path d="M904.14,716.79c-99.95,0-199.9,0-299.85,0c-0.82-0.08-1.65-0.22-2.47-0.23c-13.31-0.03-26.62-0.04-39.93-0.05
		c-53.38-0.04-106.76-0.08-160.14-0.11c-99.24-0.05-198.47-0.08-297.71-0.17c-3.82,0-7.67-0.29-11.45-0.83
		c-22.8-3.29-42.71-12.71-59.39-28.63c-16.95-16.18-27.51-35.88-31.55-59c-0.68-3.9-1.11-7.84-1.65-11.76c0-47.4,0-94.79,0-142.19
		c0.08-0.89,0.22-1.79,0.22-2.68c0.02-108.61,0.03-217.23,0.03-325.84c0-1.17-0.16-2.35-0.24-3.52c0-13.66,0-27.32,0-40.98
		c0.26-1.99,0.53-3.99,0.77-5.98C3.66,70.9,13.39,50.14,30.16,32.93c21.32-21.88,47.48-32.89,78.06-32.9
		C255.21-0.01,402.2,0.04,549.19,0.04c115.84,0,231.68-0.02,347.52-0.04c8.6,0,17.15,0.67,25.48,2.82
		c38.91,10.01,64.88,34.13,78.01,72.05c2.47,7.13,3.56,14.47,3.55,22.13c-0.1,170.34-0.08,340.68-0.07,511.03
		c0,8.18-0.81,16.26-2.48,24.27c-8.57,41.03-42.5,74.5-83.68,82.42C913.08,715.57,908.6,716.11,904.14,716.79z M106.49,56.66
		c-0.24,0.28-0.49,0.56-0.73,0.84c0.69,0.34,1.52,0.53,2.04,1.04c16.11,16.02,32.19,32.07,48.27,48.13
		C259.58,210.03,363.1,313.39,466.63,416.75c8.09,8.08,16.17,16.16,24.27,24.22c4.51,4.49,9.9,6.35,16.23,5.24
		c4.38-0.77,7.7-3.31,10.77-6.38C621.23,336.47,724.58,233.14,827.93,129.8c23.76-23.75,47.51-47.5,71.27-71.25
		c0.54-0.54,1.04-1.12,1.75-1.89C635.81,56.66,371.15,56.66,106.49,56.66z M606.62,426.76c-0.38,0.52-0.8,1.27-1.39,1.85
		c-29.17,29.19-58.36,58.37-87.55,87.55c-8.77,8.77-18.98,8.78-27.69,0.02c-30.22-30.39-60.45-60.79-90.67-91.18
		c-0.52-0.53-1.07-1.02-1.19-1.13c-79.82,79.88-159.48,159.6-238.8,238.98c227.43,0,455.48,0,683.35,0
		C764.11,584.27,685.54,505.69,606.62,426.76z M645.4,389.04c0.45,0.39,1.11,0.9,1.7,1.49c45.55,45.63,91.09,91.26,136.64,136.9
		c43.67,43.76,87.36,87.5,131,131.29c1.23,1.23,2.22,1.39,3.81,0.86c13.25-4.35,22.31-12.98,27.09-26.11
		c3.41-9.38,4.25-19.12,4.25-28.99c0-172.57,0-345.14,0-517.72c0-0.72-0.06-1.43-0.1-2.3C848.23,186.08,746.9,287.47,645.4,389.04z
		 M59.9,86.73c0,0.95,0,1.71,0,2.47c0,175.56-0.01,351.13,0.05,526.69c0,4.65,0.43,9.34,1.2,13.93
		c2.28,13.55,9.04,23.78,22.26,29.04c1.66,0.66,2.66,0.51,3.96-0.79c90.17-90.22,180.38-180.41,270.59-270.6
		c0.52-0.52,1.02-1.07,1.24-1.32C259.39,286.31,159.74,186.61,59.9,86.73z"/>
</g>
</svg>
