<?xml version="1.0" encoding="utf-8"?>
<!-- Generator: Adobe Illustrator 23.0.0, SVG Export Plug-In . SVG Version: 6.00 Build 0)  -->
<svg version="1.1" id="Layer_1" xmlns="http://www.w3.org/2000/svg" xmlns:xlink="http://www.w3.org/1999/xlink" x="0px" y="0px"
	 viewBox="0 0 59.25 79.86" style="enable-background:new 0 0 59.25 79.86;" xml:space="preserve" fill="red">
<style type="text/css">
</style>
<g>
	<path d="M37.98,79.86c-0.07-0.02-0.13-0.05-0.2-0.06c-2.29-0.34-4.43-1.11-6.48-2.15c-2.12-1.08-4.07-2.42-5.91-3.92
		c-1.69-1.37-3.27-2.86-4.78-4.44c-2.31-2.41-4.43-4.99-6.44-7.65c-1.71-2.27-3.32-4.61-4.9-6.96c-0.62-0.93-1.24-1.86-1.79-2.84
		c-0.85-1.51-1.57-3.08-2.22-4.69c-0.85-2.12-1.54-4.29-2.13-6.49c-0.55-2.05-1.02-4.11-1.39-6.2c-0.25-1.43-0.49-2.87-0.7-4.31
		c-0.16-1.13-0.29-2.27-0.41-3.4c-0.11-1.05-0.2-2.1-0.29-3.15c-0.07-0.92-0.13-1.84-0.18-2.77c-0.06-1.35-0.1-2.7-0.15-4.05
		C0.01,16.37-0.01,15.99,0,15.6c0.03-1.59,0.21-3.15,0.67-4.68c0.6-2,1.59-3.78,3.02-5.31c1.29-1.39,2.82-2.45,4.52-3.29
		c1.53-0.75,3.13-1.29,4.78-1.67c1.32-0.3,2.66-0.51,4.02-0.57c0.07,0,0.14,0,0.23,0c0.23,7.72,0.45,15.42,0.68,23.13
		c-0.18,0.09-0.34,0.17-0.51,0.26c-0.99,0.52-1.86,1.19-2.53,2.11c-0.58,0.79-0.95,1.68-1.12,2.64c-0.21,1.17-0.15,2.34,0.13,3.49
		c0.09,0.39,0.22,0.77,0.34,1.15c0.03,0.09,0.09,0.25,0.13,0.33c2.97,5.9,5.99,11.79,9.15,17.59c1.16,2.14,2.34,4.27,3.63,6.34
		c0.37,0.6,0.77,1.2,1.18,1.78c0.53,0.76,1.2,1.38,2.03,1.82c0.63,0.34,1.3,0.53,2.01,0.6c1.06,0.1,2.09-0.08,3.09-0.41
		c0.6-0.2,1.18-0.46,1.75-0.79c6.11,4.81,12.23,9.62,18.37,14.44c-0.42,0.25-0.81,0.5-1.21,0.73c-1.67,0.96-3.42,1.76-5.22,2.46
		c-2.12,0.82-4.29,1.5-6.5,2.03c-0.06,0.01-0.12,0.05-0.18,0.07C40.97,79.86,39.47,79.86,37.98,79.86z"/>
	<path class="st0" d="M59.25,68.16c-0.16,0.58-0.3,1.17-0.56,1.72c-0.49,1.06-0.72,2.21-1.02,3.33c-0.02,0.07-0.04,0.12-0.07,0.21
		c-6.29-5-12.58-9.98-18.87-14.98c0.3-0.17,0.21-0.15,1.44-0.52c1.22-0.37,2.28-1.08,3.24-1.92c0.19-0.17,0.36-0.23,0.56-0.24
		c0.7-0.02,1.33,0.2,1.95,0.48c0.48,0.22,0.92,0.5,1.34,0.81c1.48,1.11,2.97,2.22,4.43,3.35c2.08,1.61,4.15,3.24,6.21,4.87
		c0.62,0.49,1.06,1.11,1.28,1.88c0.03,0.1,0.04,0.19,0.07,0.29C59.25,67.68,59.25,67.92,59.25,68.16z"/>
	<path class="st0" d="M19.28,0.06c0.14-0.02,0.25-0.04,0.37-0.05c0.91-0.06,1.77,0.18,2.6,0.55c0.72,0.31,1.41,0.71,2.04,1.18
		c0.46,0.35,0.88,0.74,1.16,1.25c0.13,0.24,0.18,0.51,0.18,0.78c0.05,3.87,0.11,7.74,0.16,11.61c0.02,1.26,0.03,2.51,0.05,3.77
		c0,0.11-0.04,0.22-0.11,0.31c-0.45,0.56-0.91,1.1-1.41,1.61c-0.27,0.28-0.59,0.52-0.93,0.72c-0.69,0.41-1.41,0.77-2.19,0.95
		c-0.27,0.06-0.53,0.11-0.81,0.06c-0.32-0.05-0.47-0.19-0.5-0.5c-0.05-0.48-0.11-0.97-0.14-1.45c-0.14-2.49-0.21-4.97-0.26-7.46
		c-0.06-3.16-0.12-6.33-0.18-9.49c-0.02-1.21-0.04-2.43-0.05-3.65C19.28,0.2,19.28,0.14,19.28,0.06z"/>
</g>
</svg>
