<?xml version="1.0" encoding="utf-8"?>
<!-- Generator: Adobe Illustrator 23.0.0, SVG Export Plug-In . SVG Version: 6.00 Build 0)  -->
<svg version="1.1" id="_x31_0" xmlns="http://www.w3.org/2000/svg" xmlns:xlink="http://www.w3.org/1999/xlink" x="0px" y="0px"
	 viewBox="0 0 24.09 27.41" style="enable-background:new 0 0 24.09 27.41;" xml:space="preserve" fill="black">
<g>
	<path class="st0" d="M21.28,12.29c-0.51,0-1,0.14-1.41,0.37c-0.23-1.3-1.38-2.3-2.77-2.3c-0.54,0-1.07,0.17-1.49,0.45
		c-0.41-1.05-1.44-1.79-2.63-1.79c-0.53,0-1.02,0.15-1.43,0.38V2.83C11.55,1.27,10.29,0,8.73,0C7.18,0,5.92,1.27,5.92,2.83v12.69
		l-1-1.11c-1.03-1.17-2.81-1.27-3.97-0.26c-1.17,1.04-1.27,2.83-0.23,3.98l6.14,6.92c1.23,1.21,3.33,2.36,5.15,2.36h6.04
		c3.35,0,6.04-2.44,6.04-5.42V15.1C24.09,13.53,22.84,12.29,21.28,12.29L21.28,12.29z"/>
</g>
</svg>
