<?xml version="1.0" encoding="utf-8"?>
<!-- Generator: Adobe Illustrator 23.0.0, SVG Export Plug-In . SVG Version: 6.00 Build 0)  -->
<svg version="1.1" id="Layer_1" xmlns="http://www.w3.org/2000/svg" xmlns:xlink="http://www.w3.org/1999/xlink" x="0px" y="0px"
	 viewBox="0 0 158 240" style="enable-background:new 0 0 158 240;" xml:space="preserve">
<g>
	<path class="st0" d="M79,240c-43.6,0-79-35.2-79-78.6c0-28.2,15-52.9,37.4-66.8V45.5C37.4,20.4,57.9,0,83.2,0
		c25.3,0,45.7,20.4,45.7,45.5v54.9c17.8,14.4,29.1,36.4,29.1,60.9C158,204.8,122.6,240,79,240z M112.3,45.5c0-16-13-29-29.1-29
		c-16.1,0-29.1,13-29.1,29v41.3c7.8-2.6,16.2-4.1,24.9-4.1c11.9,0,23.1,2.7,33.3,7.4V45.5z M79,95.2c-36.7,0-66.5,29.6-66.5,66.2
		c0,36.6,29.8,66.2,66.5,66.2s66.5-29.6,66.5-66.2C145.5,124.8,115.7,95.2,79,95.2z M79,223.4c-34.4,0-62.4-27.8-62.4-62.1
		c0-34.3,27.9-62.1,62.4-62.1c34.4,0,62.4,27.8,62.4,62.1C141.4,195.7,113.4,223.4,79,223.4z M91.5,144.8c0-6.9-5.6-12.4-12.5-12.4
		s-12.5,5.6-12.5,12.4c0,5.9,4.2,10.6,9.7,11.9l-9.7,37.8H92l-10.9-37.7C86.9,155.8,91.5,151,91.5,144.8z"/>
</g>
</svg>
