<?xml version="1.0" encoding="utf-8"?>
<!-- Generator: Adobe Illustrator 23.0.0, SVG Export Plug-In . SVG Version: 6.00 Build 0)  -->
<svg version="1.1" id="Layer_1" xmlns="http://www.w3.org/2000/svg" xmlns:xlink="http://www.w3.org/1999/xlink" x="0px" y="0px"
	 viewBox="0 0 301.9 233.7" style="enable-background:new 0 0 301.9 233.7;" xml:space="preserve">
<g>
	<path class="st0" d="M0,113.9c2-4.5,4.6-8.3,9.8-9.6c1.9-0.5,3.7-0.4,5.6-0.4c55.5,0,111,0,166.5,0c1,0,2.1,0,3.2,0
		c-0.3-1.3-1.2-1.8-1.9-2.5c-7.4-7.4-14.9-14.8-22.3-22.3c-7.3-7.5-4.6-19.1,5-22c5-1.5,9.5-0.3,13.3,3.4c3.7,3.6,7.4,7.4,11.1,11
		c11.7,11.7,23.3,23.3,35,35c6.7,6.7,6.7,14.1,0,20.8c-15.2,15.2-30.4,30.5-45.6,45.6c-7,7-17.6,5.4-21.6-3.2
		c-2.4-5.2-1.4-10.7,3.2-15.3c7.3-7.4,14.7-14.7,22.1-22.1c0.7-0.7,1.6-1.1,1.9-2.5c-1.1,0-2.2,0-3.2,0c-54.8,0-109.6-0.1-164.4,0.1
		c-8.3,0-14.3-2.1-17.4-10.2C0,117.8,0,115.9,0,113.9z"/>
	<path class="st1" d="M185.1,0.1c25.2,0,50.5-0.2,75.7,0.1c19.8,0.3,37.8,17,40.4,36.7c0.3,2.4,0.5,4.9,0.5,7.3
		c0,48.4,0,96.9,0,145.3c0,21.2-13.4,38.1-34,43.2c-3.3,0.8-6.6,1-9.9,1c-48.6,0-97.3,0.1-145.9,0c-22.2-0.1-39.5-14.8-43.4-36.4
		c-0.5-2.7-0.6-5.5-0.6-8.2c-0.1-14,0-28.1,0-42.2c0-1.5-0.3-3.1,2.1-2.8c0.9,0.1,1.3-0.8,1.8-1.4c5.3-5.1,12.9-5.1,18.2-0.1
		c0.4,0.4,0.9,1.2,1.3,1.2c3.6-0.2,2.7,2.4,2.7,4.3c0,13.5,0.3,26.9,0,40.4c-0.3,11.6,8.4,19.3,19.4,19.2c47.7-0.2,95.3-0.1,143-0.1
		c12.2,0,19.4-7.2,19.4-19.4c0-47.6,0-95.1,0-142.7c0-12.4-7.2-19.5-19.6-19.5c-47.6,0-95.1,0.1-142.7-0.1c-11,0-19.7,7.4-19.4,19.5
		c0.4,13.6,0.1,27.3,0.1,41c0,1.6,0.6,3.5-2.3,3.3c-0.5,0-1.1,0.8-1.5,1.2c-5.3,5.1-13,5.2-18.3,0.2c-0.4-0.4-0.8-1.2-1.3-1.2
		C66.9,90,68,87.2,68,85.1c0.1-15-0.6-30.1,0.3-45.1C69.5,18.6,88,0.8,109.4,0.1c0.8,0,1.6-0.1,2.4-0.1C136.2,0,160.7,0,185.1,0.1
		C185.1,0,185.1,0.1,185.1,0.1z"/>
</g>
</svg>
