<?xml version="1.0" encoding="utf-8"?>
<!-- Generator: Adobe Illustrator 23.0.0, SVG Export Plug-In . SVG Version: 6.00 Build 0)  -->
<svg version="1.1" id="_x33_4" xmlns="http://www.w3.org/2000/svg" xmlns:xlink="http://www.w3.org/1999/xlink" x="0px" y="0px"
	 viewBox="0 0 35.3 35.2" style="enable-background:new 0 0 35.3 35.2;" xml:space="preserve" fill="black">
<g>
	<path class="st0" d="M12.66,21.87C4.32,26.45,0,23.82,0,35.2h17.65h0.14h17.37c0-3.74-0.55-5.98-1.53-7.51
		c-1.25,0.97-2.64,1.53-4.31,1.53c-3.75,0-6.95-3.19-6.95-6.93c0-0.13,0-0.29,0-0.29c-1.25,1.11-2.91,2.08-4.73,2.08
		C15.71,24.08,14.04,23.11,12.66,21.87L12.66,21.87z M29.33,16.18L29.33,16.18c-3.33,0-6.12,2.77-6.12,6.11
		c0,3.32,2.79,5.96,6.12,5.96c3.33,0,5.97-2.64,5.97-5.96C35.3,18.95,32.67,16.18,29.33,16.18L29.33,16.18z M30.45,25.9L30.45,25.9
		l-0.16,0.13h-1.94c-0.14,0-0.28-0.13-0.28-0.13c0-0.13,0.13-0.29,0.28-0.29h1.94C30.3,25.61,30.45,25.77,30.45,25.9L30.45,25.9z
		 M30.3,26.17L30.3,26.17h-1.94c-0.14,0-0.28,0.16-0.14,0.29c0,0.13,0,0.13,0.14,0.13l0,0c0.14,0,0.28,0.15,0.28,0.29
		c0.13,0.13,0.28,0.27,0.55,0.27h0.29c0.13,0,0.41-0.13,0.41-0.27c0.14-0.13,0.14-0.29,0.28-0.29c0.13,0,0.29,0,0.29-0.13
		C30.58,26.32,30.45,26.17,30.3,26.17L30.3,26.17z M29.33,18.68L29.33,18.68c0.14,0,0.28,0,0.28-0.13v-0.97
		c0-0.13-0.13-0.29-0.28-0.29c-0.14,0-0.28,0.15-0.28,0.29v0.97C29.06,18.68,29.19,18.68,29.33,18.68L29.33,18.68z M26.82,19.65
		L26.82,19.65h0.16c0.13,0,0.13,0,0.13,0c0.13-0.16,0.13-0.29,0-0.42l-0.55-0.55c-0.13-0.13-0.28-0.13-0.42,0c0,0,0,0.13,0,0.27
		L26.82,19.65z M26.28,21.74L26.28,21.74c0-0.13-0.14-0.29-0.28-0.29h-0.84c-0.13,0-0.27,0.16-0.27,0.29c0,0.13,0.13,0.27,0.27,0.27
		H26C26.13,22,26.28,21.87,26.28,21.74L26.28,21.74z M26.82,23.95L26.82,23.95l-0.69,0.55c0,0.15,0,0.29,0,0.42
		c0.14,0,0.14,0,0.14,0c0.14,0,0.14,0,0.28,0l0.55-0.69c0.13-0.15,0.13-0.29,0-0.29C27.11,23.82,26.97,23.82,26.82,23.95
		L26.82,23.95z M31.82,23.95L31.82,23.95c-0.13-0.13-0.27-0.13-0.41,0c0,0,0,0.13,0,0.29l0.7,0.69h0.13c0.14,0,0.14,0,0.14,0
		c0.14-0.13,0.14-0.27,0-0.42L31.82,23.95z M33.51,21.45L33.51,21.45h-0.97c-0.14,0-0.14,0.16-0.14,0.29c0,0.13,0,0.27,0.14,0.27
		h0.97c0.13,0,0.27-0.13,0.27-0.27C33.77,21.6,33.64,21.45,33.51,21.45L33.51,21.45z M31.69,19.65L31.69,19.65c0,0,0,0,0.13,0
		l0.56-0.71c0.14-0.13,0.14-0.27,0-0.27c0-0.13-0.14-0.13-0.28,0l-0.7,0.55c0,0.13,0,0.27,0,0.42
		C31.56,19.65,31.56,19.65,31.69,19.65L31.69,19.65z M30.45,25.21L30.45,25.21c0,0.13-0.16,0.27-0.16,0.27h-1.94
		c-0.14,0-0.28-0.13-0.28-0.27c0,0,0.13-0.16,0.28-0.16c-0.14-1.37-1.54-1.66-1.54-3.19c0-1.37,1.13-2.37,2.51-2.37
		c1.38,0,2.36,1,2.36,2.37c0,1.53-1.24,1.82-1.4,3.19C30.45,25.06,30.45,25.21,30.45,25.21L30.45,25.21z M28.77,20.07L28.77,20.07
		c0-0.15-0.13-0.15-0.27-0.15c-0.55,0.29-0.97,0.84-1.12,1.39c-0.14,0.13,0,0.29,0.14,0.29l0,0c0,0,0.13,0,0.13-0.16
		c0.14-0.55,0.55-0.95,0.97-1.11C28.77,20.34,28.77,20.21,28.77,20.07L28.77,20.07z M25.58,10.07L25.58,10.07
		c-0.13-0.13-0.42,0-0.55,0.29c0,0,0.83-4.16,0.13-5.82c-1.24-4.58-11.8-5.85-11.8-3.06c-4.6,1.37-3.75,5.54-3.06,8.88
		c0,0-0.29-0.42-0.84,0c-0.42,0.55,0.14,1.79,0.29,2.35c0.13,0.42,0.27,0.84,0.4,0.97c0,0.15,0,0.15,0,0.15
		c0,0.55,0.15,0.82,0.42,0.82l0,0c1.11,4.03,4.32,7.35,7.09,7.35c2.65,0,5.85-3.32,6.95-7.35c0.14,0,0.42-0.27,0.42-0.82l0,0
		c0.13-0.29,0.27-0.58,0.42-1.13C25.58,12.15,26.13,10.49,25.58,10.07L25.58,10.07z"/>
</g>
</svg>
