<?xml version="1.0" encoding="utf-8"?>
<!-- Generator: Adobe Illustrator 23.0.0, SVG Export Plug-In . SVG Version: 6.00 Build 0)  -->
<svg version="1.1" id="OBJECTS" xmlns="http://www.w3.org/2000/svg" xmlns:xlink="http://www.w3.org/1999/xlink" x="0px" y="0px"
	 viewBox="0 0 34.69 31.72" style="enable-background:new 0 0 34.69 31.72;" xml:space="preserve" fill="black">
<g>
	<path class="st0" d="M17.35,15.9c-4.38,0-7.95-3.57-7.95-7.95C9.39,3.57,12.96,0,17.35,0c4.38,0,7.95,3.57,7.95,7.95
		C25.3,12.34,21.73,15.9,17.35,15.9z M17.35,2c-3.28,0-5.95,2.67-5.95,5.95s2.67,5.95,5.95,5.95c3.28,0,5.95-2.67,5.95-5.95
		S20.63,2,17.35,2z"/>
</g>
<g>
	<path class="st0" d="M34.69,31.72H0v-3.52c0-5.61,4.56-10.17,10.18-10.17h14.34c5.61,0,10.18,4.56,10.18,10.17V31.72z M2,29.72
		h30.69v-1.52c0-4.51-3.67-8.17-8.18-8.17H10.18C5.67,20.03,2,23.7,2,28.21V29.72z"/>
</g>
</svg>
