<?xml version="1.0" encoding="utf-8"?>
<!-- Generator: Adobe Illustrator 23.0.0, SVG Export Plug-In . SVG Version: 6.00 Build 0)  -->
<svg version="1.1" id="OBJECTS" xmlns="http://www.w3.org/2000/svg" xmlns:xlink="http://www.w3.org/1999/xlink" x="0px" y="0px"
	 viewBox="0 0 35.37 30.62" style="enable-background:new 0 0 35.37 30.62;" xml:space="preserve" fill="black">
<path class="st0" d="M17.69,30.62c-0.77,0-1.48-0.46-1.94-1.27l-3.5-6.06H6.13C2.75,23.29,0,20.53,0,17.15V6.13
	C0,2.75,2.75,0,6.13,0h23.1c3.38,0,6.13,2.75,6.13,6.13v11.02c0,3.38-2.75,6.13-6.13,6.13h-6.11l-3.5,6.06
	C19.16,30.15,18.45,30.62,17.69,30.62z M6.13,2C3.85,2,2,3.85,2,6.13v11.02c0,2.28,1.85,4.13,4.13,4.13h7.26l4.08,7.06
	c0.09,0.15,0.17,0.23,0.21,0.26c0.04-0.03,0.12-0.11,0.21-0.26l4.08-7.06h7.26c2.28,0,4.13-1.85,4.13-4.13V6.13
	c0-2.28-1.85-4.13-4.13-4.13H6.13z"/>
<g>
	<path class="st0" d="M22.23,7.38c-2.36-1.29-4.54,1.21-4.54,1.21s-2.19-2.5-4.54-1.21c-2.28,1.25-2.41,3.96-1.4,5.69
		c1.11,1.91,5.95,6.23,5.95,6.23s4.84-4.33,5.95-6.23C24.64,11.33,24.51,8.62,22.23,7.38z"/>
</g>
</svg>
