<?xml version="1.0" encoding="utf-8"?>
<!-- Generator: Adobe Illustrator 23.0.0, SVG Export Plug-In . SVG Version: 6.00 Build 0)  -->
<svg version="1.1" id="Layer_1" xmlns="http://www.w3.org/2000/svg" xmlns:xlink="http://www.w3.org/1999/xlink" x="0px" y="0px"
	 viewBox="0 0 36.15 31.81" style="enable-background:new 0 0 36.15 31.81;" xml:space="preserve" fill="black">
<g>
	<path class="st0" d="M17.68,31.81c-0.1,0-0.22-0.01-0.32-0.03c-0.89-0.19-1.53-0.86-1.64-1.69l-2.26-16.96L0.79,3.56
		C0.11,3.03-0.17,2.15,0.1,1.35C0.38,0.54,1.13,0,1.98,0c33.44,0.53,33.47,0.57,33.88,1.07l0.3,0.36L36.06,1.9
		c-0.04,0.22-0.04,0.22-16.67,28.93C19.03,31.43,18.38,31.81,17.68,31.81z M1.96,2l13.37,10.04l2.36,17.72
		c4.75-8.2,13.11-22.64,15.71-27.15C28.48,2.45,12.81,2.17,1.96,2z"/>
</g>
<g>
	
		<rect x="13.03" y="6.07" transform="matrix(0.8843 -0.4668 0.4668 0.8843 -0.4257 12.4169)" class="st0" width="23.64" height="2"/>
</g>
</svg>
