<?xml version="1.0" encoding="utf-8"?>
<!-- Generator: Adobe Illustrator 23.0.0, SVG Export Plug-In . SVG Version: 6.00 Build 0)  -->
<svg version="1.1" id="Layer_1" xmlns="http://www.w3.org/2000/svg" xmlns:xlink="http://www.w3.org/1999/xlink" x="0px" y="0px"
	 viewBox="0 0 147.18 131.74" style="enable-background:new 0 0 147.18 131.74;" xml:space="preserve">
<g>
	<path d="M23.59,60.87c0-0.35,0-0.63,0-0.91c0-16.68,0-33.36,0-50.04c0-4.29,2.47-7.92,6.4-9.31c0.97-0.34,2.04-0.41,3.07-0.6
		c0.21-0.04,0.44-0.01,0.65-0.01c26.58,0,53.17,0,79.75-0.01c3.12,0,5.73,1.07,7.77,3.43c1.63,1.88,2.34,4.1,2.33,6.58
		c-0.01,13.51-0.01,27.02-0.01,40.53c0,3.17,0,6.34,0,9.51c0,0.24,0,0.47,0,0.81c0.37,0,0.69,0,1.01,0c2.47-0.02,4.95-0.1,7.36,0.61
		c7.94,2.34,12.71,7.69,14.66,15.62c0.37,1.51,0.51,3.11,0.52,4.68c0.05,9.68,0.13,19.37-0.01,29.05
		c-0.12,8.29-3.81,14.63-11.12,18.7c-2.66,1.48-5.57,2.18-8.62,2.18c-35.85,0.01-71.71,0.06-107.56-0.04
		c-7.98-0.02-13.7-4.17-17.44-11.1c-1.63-3.01-2.34-6.3-2.35-9.72c-0.01-9.73-0.03-19.46,0.01-29.19
		c0.03-8.62,5.09-16.24,12.81-19.41c2.38-0.98,4.86-1.42,7.42-1.4C21.34,60.88,22.43,60.87,23.59,60.87z M116.8,60.83
		c0.01-0.25,0.03-0.46,0.03-0.68c0-16.7,0-33.4,0-50.1c0-2.11-1.23-3.33-3.35-3.33c-26.6,0-53.2,0-79.81,0
		c-2.16,0-3.37,1.21-3.37,3.38c0,16.68,0,33.36,0,50.04c0,0.23,0.02,0.46,0.03,0.69C59.2,60.83,87.98,60.83,116.8,60.83z
		 M72.25,74.82c-6.95-0.04-13.47,0.64-19.85,2.49c-4.68,1.36-9.03,3.53-13.46,5.49c-7.45,3.3-11.38,9.32-13.19,16.97
		c-0.47,1.97-0.59,4,0.18,5.94c0.92,2.29,2.25,4.33,3.78,6.26c0.97,1.23,2.12,1.49,3.54,1.06c0.17-0.05,0.33-0.1,0.5-0.15
		c1.83-0.5,3.67-0.99,5.5-1.49c3.83-1.05,7.66-2.11,11.5-3.16c1.12-0.3,1.71-1.08,1.81-2.16c0.11-1.23,0.12-2.49,0.05-3.72
		c-0.14-2.46-0.43-4.92-0.53-7.39c-0.08-1.84,0.65-2.74,2.41-3.26c0.96-0.29,1.95-0.47,2.92-0.74c5.53-1.51,11.14-2.41,16.9-2.27
		c5.35,0.13,10.54,1.17,15.67,2.63c2.81,0.8,3.33,1.52,3.22,4.43c-0.07,1.99-0.11,3.98-0.07,5.96c0.05,2.25,1.07,3.87,3.19,4.83
		c3.7,1.69,7.35,3.47,11.02,5.22c1.54,0.74,3.06,1.5,4.59,2.25c1.22,0.6,2.35,0.52,3.39-0.41c1.29-1.15,2.58-2.29,3.89-3.42
		c1.77-1.54,2.51-3.55,2.46-5.82c-0.04-1.83-0.11-3.7-0.54-5.46c-1.65-6.77-5.21-12.17-11.61-15.38c-1.56-0.78-3.14-1.55-4.76-2.2
		C94.23,77.15,83.26,75.05,72.25,74.82z"/>
	<path d="M73.7,22.16c-11.15,0-22.29,0-33.44,0c-2.22,0-3.75-1.58-3.58-3.68c0.12-1.5,1.28-2.76,2.77-2.99
		c0.39-0.06,0.78-0.07,1.18-0.07c22.1,0,44.19,0,66.29,0c0.54,0,1.1,0.04,1.62,0.19c1.55,0.47,2.49,2.01,2.29,3.62
		c-0.2,1.58-1.51,2.8-3.15,2.92c-0.26,0.02-0.52,0.01-0.79,0.01C95.82,22.16,84.76,22.16,73.7,22.16z"/>
	<path d="M73.71,36.35c-11.17,0-22.34,0-33.51,0c-2.18,0-3.69-1.58-3.53-3.66c0.13-1.63,1.44-2.94,3.08-3.05
		c0.3-0.02,0.61-0.02,0.92-0.02c22.05,0,44.11,0,66.16,0.01c0.54,0,1.1,0.01,1.62,0.16c1.58,0.44,2.55,1.98,2.36,3.63
		c-0.18,1.58-1.53,2.83-3.14,2.92c-0.26,0.01-0.52,0.01-0.79,0.01C95.83,36.35,84.77,36.35,73.71,36.35z"/>
	<path d="M73.77,50.56c-11.11,0-22.21,0.01-33.32-0.01c-0.62,0-1.28-0.09-1.85-0.32c-1.43-0.6-2.17-2.13-1.88-3.67
		c0.27-1.47,1.53-2.57,3.07-2.7c0.13-0.01,0.26-0.01,0.39-0.01c22.37,0,44.73,0,67.1,0c1.75,0,3.06,0.99,3.46,2.55
		c0.51,2-0.94,4.01-3,4.15c-0.3,0.02-0.61,0.01-0.92,0.01C95.8,50.56,84.79,50.56,73.77,50.56z"/>
</g>
</svg>
