<?xml version="1.0" encoding="utf-8"?>
<!-- Generator: Adobe Illustrator 23.0.0, SVG Export Plug-In . SVG Version: 6.00 Build 0)  -->
<svg version="1.1" id="OBJECTS" xmlns="http://www.w3.org/2000/svg" xmlns:xlink="http://www.w3.org/1999/xlink" x="0px" y="0px"
	 viewBox="0 0 30.47 30.32" style="enable-background:new 0 0 30.47 30.32;" xml:space="preserve" fill="black">
<g>
	<path class="st0" d="M21.29,30.32H9.17C4.12,30.32,0,26.2,0,21.14V9.17C0,4.12,4.12,0,9.17,0h12.12c5.06,0,9.17,4.12,9.17,9.17
		v11.97C30.47,26.2,26.35,30.32,21.29,30.32z M9.17,2C5.22,2,2,5.22,2,9.17v11.97c0,3.96,3.22,7.17,7.17,7.17h12.12
		c3.96,0,7.17-3.22,7.17-7.17V9.17c0-3.96-3.22-7.17-7.17-7.17H9.17z"/>
</g>
<g>
	<polygon class="st0" points="21.8,13.92 16.47,13.92 16.47,8.59 13.99,8.59 13.99,13.92 8.66,13.92 8.66,16.4 13.99,16.4 
		13.99,21.73 16.47,21.73 16.47,16.4 21.8,16.4 	"/>
</g>
</svg>
