<?xml version="1.0" encoding="utf-8"?>
<!-- Generator: Adobe Illustrator 23.0.0, SVG Export Plug-In . SVG Version: 6.00 Build 0)  -->
<svg version="1.1" id="Layer_1" xmlns="http://www.w3.org/2000/svg" xmlns:xlink="http://www.w3.org/1999/xlink" x="0px" y="0px"
	 viewBox="0 0 12 12" style="enable-background:new 0 0 12 12;" xml:space="preserve">
<g>
	<path class="st0" d="M6,12c-3.3,0-6-2.7-6-6c0-3.3,2.7-6,6-6s6,2.7,6,6C12,9.3,9.3,12,6,12z M4,2.8c-0.4,0-0.8,0.4-0.8,1
		c0,0.6,0.3,1,0.8,1c0.4,0,0.7-0.4,0.7-1C4.7,3.3,4.4,2.8,4,2.8z M8,2.8c-0.4,0-0.8,0.4-0.8,1c0,0.6,0.3,1,0.8,1
		c0.4,0,0.8-0.4,0.8-1C8.7,3.3,8.4,2.8,8,2.8z M6,7.2c-2.4,0-3,2.1-3,2.1s0.7-1.2,3-1.2c2.3,0,3,1.3,3,1.3S8.3,7.2,6,7.2z"/>
</g>
</svg>
