<?xml version="1.0" encoding="utf-8"?>
<!-- Generator: Adobe Illustrator 23.0.0, SVG Export Plug-In . SVG Version: 6.00 Build 0)  -->
<svg version="1.1" id="OBJECTS" xmlns="http://www.w3.org/2000/svg" xmlns:xlink="http://www.w3.org/1999/xlink" x="0px" y="0px"
	 viewBox="0 0 28.45 32" style="enable-background:new 0 0 28.45 32;" xml:space="preserve" fill="black">
<g>
	<path class="st0" d="M26.26,32c-0.56,0-1.1-0.21-1.51-0.6L14.22,21.31L3.69,31.39c-0.63,0.6-1.59,0.77-2.37,0.43
		c-0.8-0.34-1.32-1.13-1.32-2V2.18C0,0.98,0.98,0,2.18,0h24.08c1.2,0,2.18,0.98,2.18,2.18v27.63c0,0.88-0.52,1.67-1.33,2.01
		C26.85,31.94,26.56,32,26.26,32z M14.22,18.54l11.91,11.41c0.05,0.05,0.13,0.07,0.2,0.04c0.07-0.03,0.12-0.09,0.12-0.17V2.18
		c0-0.1-0.08-0.18-0.18-0.18H2.18C2.08,2,2,2.08,2,2.18v27.63c0,0.07,0.04,0.14,0.11,0.17c0.12,0.02,0.17,0,0.21-0.04L14.22,18.54z"
		/>
</g>
</svg>
